<mxfile host="app.diagrams.net" modified="2022-03-13T23:08:33.280Z" agent="5.0 (Windows NT 10.0; Win64; x64) AppleWebKit/537.36 (KHTML, like Gecko) Chrome/99.0.4844.51 Safari/537.36" etag="r7F4d8b9dHq2_PqB6RGZ" version="17.1.2" type="github">
  <diagram id="CqUbkGqT8WHaik48fMPh" name="Page-1">
    <mxGraphModel dx="868" dy="482" grid="1" gridSize="10" guides="1" tooltips="1" connect="1" arrows="1" fold="1" page="1" pageScale="1" pageWidth="827" pageHeight="1169" math="0" shadow="0">
      <root>
        <mxCell id="0" />
        <mxCell id="1" parent="0" />
        <mxCell id="L2YQOs7BmYoQq5G8vB8--1" value="Locatario" style="swimlane;horizontal=0;" vertex="1" parent="1">
          <mxGeometry x="40" y="224" width="610" height="170" as="geometry">
            <mxRectangle x="40" y="40" width="30" height="70" as="alternateBounds" />
          </mxGeometry>
        </mxCell>
        <mxCell id="L2YQOs7BmYoQq5G8vB8--52" style="edgeStyle=orthogonalEdgeStyle;rounded=0;orthogonalLoop=1;jettySize=auto;html=1;entryX=0;entryY=0.5;entryDx=0;entryDy=0;" edge="1" parent="L2YQOs7BmYoQq5G8vB8--1" source="L2YQOs7BmYoQq5G8vB8--3" target="L2YQOs7BmYoQq5G8vB8--10">
          <mxGeometry relative="1" as="geometry" />
        </mxCell>
        <mxCell id="L2YQOs7BmYoQq5G8vB8--3" value="" style="shape=umlActor;verticalLabelPosition=bottom;verticalAlign=top;html=1;outlineConnect=0;" vertex="1" parent="L2YQOs7BmYoQq5G8vB8--1">
          <mxGeometry x="60" y="55" width="30" height="60" as="geometry" />
        </mxCell>
        <mxCell id="L2YQOs7BmYoQq5G8vB8--10" value="Devolve o veículo na data acordada e paga a segunda metade do aluguel" style="rounded=1;whiteSpace=wrap;html=1;" vertex="1" parent="L2YQOs7BmYoQq5G8vB8--1">
          <mxGeometry x="245" y="55" width="120" height="60" as="geometry" />
        </mxCell>
        <mxCell id="L2YQOs7BmYoQq5G8vB8--13" value="Locador" style="swimlane;horizontal=0;direction=east;" vertex="1" parent="1">
          <mxGeometry x="40" y="620" width="600" height="160" as="geometry" />
        </mxCell>
        <mxCell id="L2YQOs7BmYoQq5G8vB8--21" value="Veículo devolvido ao locador" style="rounded=1;whiteSpace=wrap;html=1;" vertex="1" parent="L2YQOs7BmYoQq5G8vB8--13">
          <mxGeometry x="250" y="50" width="120" height="60" as="geometry" />
        </mxCell>
        <mxCell id="L2YQOs7BmYoQq5G8vB8--22" value="Auto-Rent" style="swimlane;" vertex="1" parent="1">
          <mxGeometry x="40" y="420" width="600" height="170" as="geometry" />
        </mxCell>
        <mxCell id="L2YQOs7BmYoQq5G8vB8--55" style="edgeStyle=orthogonalEdgeStyle;rounded=0;orthogonalLoop=1;jettySize=auto;html=1;entryX=0;entryY=0.5;entryDx=0;entryDy=0;" edge="1" parent="L2YQOs7BmYoQq5G8vB8--22" source="L2YQOs7BmYoQq5G8vB8--30" target="L2YQOs7BmYoQq5G8vB8--54">
          <mxGeometry relative="1" as="geometry" />
        </mxCell>
        <mxCell id="L2YQOs7BmYoQq5G8vB8--30" value="Revisão da data da devolução, pagamento e estado do veículo" style="rounded=1;whiteSpace=wrap;html=1;gradientColor=#ffffff;" vertex="1" parent="L2YQOs7BmYoQq5G8vB8--22">
          <mxGeometry x="100" y="65" width="120" height="60" as="geometry" />
        </mxCell>
        <mxCell id="L2YQOs7BmYoQq5G8vB8--58" value="NÃO" style="edgeStyle=orthogonalEdgeStyle;rounded=0;orthogonalLoop=1;jettySize=auto;html=1;entryX=0;entryY=0.5;entryDx=0;entryDy=0;" edge="1" parent="L2YQOs7BmYoQq5G8vB8--22" source="L2YQOs7BmYoQq5G8vB8--54" target="L2YQOs7BmYoQq5G8vB8--57">
          <mxGeometry relative="1" as="geometry" />
        </mxCell>
        <mxCell id="L2YQOs7BmYoQq5G8vB8--54" value="Devolução&lt;br&gt;validada" style="rhombus;whiteSpace=wrap;html=1;fillColor=#fff2cc;strokeColor=#d6b656;" vertex="1" parent="L2YQOs7BmYoQq5G8vB8--22">
          <mxGeometry x="270" y="55" width="80" height="80" as="geometry" />
        </mxCell>
        <mxCell id="L2YQOs7BmYoQq5G8vB8--57" value="Devidas providências legais" style="rounded=1;whiteSpace=wrap;html=1;gradientColor=#ffffff;" vertex="1" parent="L2YQOs7BmYoQq5G8vB8--22">
          <mxGeometry x="430" y="65" width="120" height="60" as="geometry" />
        </mxCell>
        <mxCell id="L2YQOs7BmYoQq5G8vB8--56" value="SIM" style="edgeStyle=orthogonalEdgeStyle;rounded=0;orthogonalLoop=1;jettySize=auto;html=1;entryX=0.5;entryY=0;entryDx=0;entryDy=0;" edge="1" parent="1" source="L2YQOs7BmYoQq5G8vB8--54" target="L2YQOs7BmYoQq5G8vB8--21">
          <mxGeometry x="-0.0435" relative="1" as="geometry">
            <mxPoint as="offset" />
          </mxGeometry>
        </mxCell>
        <mxCell id="L2YQOs7BmYoQq5G8vB8--59" value="Fim" style="ellipse;whiteSpace=wrap;html=1;aspect=fixed;fontSize=18;fillColor=#f8cecc;strokeColor=#b85450;" vertex="1" parent="1">
          <mxGeometry x="679" y="660" width="80" height="80" as="geometry" />
        </mxCell>
        <mxCell id="L2YQOs7BmYoQq5G8vB8--60" style="edgeStyle=orthogonalEdgeStyle;rounded=0;orthogonalLoop=1;jettySize=auto;html=1;" edge="1" parent="1" source="L2YQOs7BmYoQq5G8vB8--21" target="L2YQOs7BmYoQq5G8vB8--59">
          <mxGeometry relative="1" as="geometry" />
        </mxCell>
        <mxCell id="L2YQOs7BmYoQq5G8vB8--61" style="edgeStyle=orthogonalEdgeStyle;rounded=0;orthogonalLoop=1;jettySize=auto;html=1;entryX=0.5;entryY=0;entryDx=0;entryDy=0;" edge="1" parent="1" source="L2YQOs7BmYoQq5G8vB8--10" target="L2YQOs7BmYoQq5G8vB8--30">
          <mxGeometry relative="1" as="geometry">
            <Array as="points">
              <mxPoint x="345" y="410" />
              <mxPoint x="200" y="410" />
            </Array>
          </mxGeometry>
        </mxCell>
      </root>
    </mxGraphModel>
  </diagram>
</mxfile>
